{"title":"Killer On The Line - S01E01 - Stephen French","uid":15883346,"size":350059670,"categoryP":"video","categoryS":"tv_shows","magnet":"?xt=urn:btih:219e9f8029c0bcd421b4daa219a6574492f37d4a&amp;dn=Killer+On+The+Line+-+S01E01+-+Stephen+French&amp;tr=udp%3A%2F%2Ftracker.leechers-paradise.org%3A6969&amp;tr=udp%3A%2F%2Fzer0day.ch%3A1337&amp;tr=udp%3A%2F%2Fopen.demonii.com%3A1337&amp;tr=udp%3A%2F%2Ftracker.coppersurfer.tk%3A6969&amp;tr=udp%3A%2F%2Fexodus.desync.com%3A6969","seeders":17,"leechers":6,"uploader":"Bullrout","files":1,"time":1474631148,"description":"Killer On The Line - S01E01 - Stephen French\r\n\r\nThis series looks at murders that were callously planned and premeditated, with the emergency calls originating from the killer themselves. Pub landlord Stephen French was sentenced to life in prison after lying about the murder of a pub patron.\r\n\r\nComplete name                            : Killer On The Line - S01E01 - Stephen French.mp4\r\nFormat                                   : MPEG-4\r\nFormat profile                           : Base Media / Version 2\r\nCodec ID                                 : mp42 (mp42/isom/avc1)\r\nFile size                                : 334 MiB\r\nDuration                                 : 41 min 58 s\r\nOverall bit rate mode                    : Variable\r\nOverall bit rate                         : 1 112 kb/s\r\n\r\nVideo\r\nID                                       : 2\r\nFormat                                   : AVC\r\nFormat/Info                              : Advanced Video Codec\r\nFormat profile                           :   \r\nFormat settings, CABAC                   : Yes\r\nFormat settings, ReFrames                : 3 frames\r\nCodec ID                                 : avc1\r\nCodec ID/Info                            : Advanced Video Coding\r\nDuration                                 : 41 min 58 s\r\nBit rate mode                            : Variable\r\nBit rate                                 : 980 kb/s\r\nMaximum bit rate                         : 1 000 kb/s\r\nWidth                                    : 720 pixels\r\nHeight                                   : 404 pixels\r\nDisplay aspect ratio                     : 16:9\r\nOriginal display aspect ratio            : 16:9\r\nFrame rate mode                          : Constant\r\nFrame rate                               : 25.000 FPS\r\nStandard                                 : PAL\r\nColor space                              : YUV\r\nChroma subsampling                       : 4:2:0\r\nBit depth                                : 8 bits\r\nScan type                                : Progressive\r\nBits/(Pixel*Frame)                       : 0.135\r\nStream size                              : 294 MiB (88%)\r\nWriting library                          : x264 core 112\r\nColor range                              : Limited\r\nColor primaries                          : BT.601 PAL\r\nTransfer characteristics                 : BT.470 System B, BT.470 System G\r\nMatrix coefficients                      : BT.601\r\n\r\nAudio\r\nID                                       : 1\r\nFormat                                   : AAC\r\nFormat/Info                              : Advanced Audio Codec\r\nFormat profile                           : LC\r\nCodec ID                                 : 40\r\nDuration                                 : 41 min 58 s\r\nBit rate mode                            : Variable\r\nBit rate                                 : 128 kb/s\r\nMaximum bit rate                         : 576 kb/s\r\nChannel(s)                               : 2 channels\r\nChannel positions                        : Front: L R\r\nSampling rate                            : 48.0 kHz\r\nFrame rate                               : 46.875 FPS (1024 spf)\r\nCompression mode                         : Lossy\r\nStream size                              : 38.4 MiB (12%)","torrent":{"xt":"urn:btih:219e9f8029c0bcd421b4daa219a6574492f37d4a","amp;dn":"Killer+On+The+Line+-+S01E01+-+Stephen+French","amp;tr":["udp%3A%2F%2Ftracker.leechers-paradise.org%3A6969","udp%3A%2F%2Fzer0day.ch%3A1337","udp%3A%2F%2Fopen.demonii.com%3A1337","udp%3A%2F%2Ftracker.coppersurfer.tk%3A6969","udp%3A%2F%2Fexodus.desync.com%3A6969"],"infoHash":"219e9f8029c0bcd421b4daa219a6574492f37d4a","infoHashBuffer":{"type":"Buffer","data":[33,158,159,128,41,192,188,212,33,180,218,162,25,166,87,68,146,243,125,74]},"announce":[],"urlList":[]}}